<?xml version="1.0" standalone="no"?>
<!DOCTYPE svg PUBLIC "-//W3C//DTD SVG 1.1//EN" "http://www.w3.org/Graphics/SVG/1.1/DTD/svg11.dtd" >
<svg xmlns="http://www.w3.org/2000/svg">
<metadata>
Created by FontForge 20120731 at Fri May 26 15:06:31 2017
 By admin
</metadata>
<defs>
<font id="iconfont" horiz-adv-x="1024" >
  <font-face 
    font-family="iconfont"
    font-weight="500"
    font-stretch="normal"
    units-per-em="1024"
    panose-1="2 0 6 3 0 0 0 0 0 0"
    ascent="896"
    descent="-128"
    x-height="792"
    bbox="0 -212 1024 896"
    underline-thickness="0"
    underline-position="0"
    unicode-range="U+0078-E78F"
  />
<missing-glyph 
 />
    <glyph glyph-name=".notdef" 
 />
    <glyph glyph-name=".notdef" 
 />
    <glyph glyph-name=".null" horiz-adv-x="0" 
 />
    <glyph glyph-name="nonmarkingreturn" horiz-adv-x="341" 
 />
    <glyph glyph-name="x" unicode="x" horiz-adv-x="1001" 
d="M281 543q-27 -1 -53 -1h-83q-18 0 -36.5 -6t-32.5 -18.5t-23 -32t-9 -45.5v-76h912v41q0 16 -0.5 30t-0.5 18q0 13 -5 29t-17 29.5t-31.5 22.5t-49.5 9h-133v-97h-438v97zM955 310v-52q0 -23 0.5 -52t0.5 -58t-10.5 -47.5t-26 -30t-33 -16t-31.5 -4.5q-14 -1 -29.5 -0.5
t-29.5 0.5h-32l-45 128h-439l-44 -128h-29h-34q-20 0 -45 1q-25 0 -41 9.5t-25.5 23t-13.5 29.5t-4 30v167h911zM163 247q-12 0 -21 -8.5t-9 -21.5t9 -21.5t21 -8.5q13 0 22 8.5t9 21.5t-9 21.5t-22 8.5zM316 123q-8 -26 -14 -48q-5 -19 -10.5 -37t-7.5 -25t-3 -15t1 -14.5
t9.5 -10.5t21.5 -4h37h67h81h80h64h36q23 0 34 12t2 38q-5 13 -9.5 30.5t-9.5 34.5q-5 19 -11 39h-368zM336 498v228q0 11 2.5 23t10 21.5t20.5 15.5t34 6h188q31 0 51.5 -14.5t20.5 -52.5v-227h-327z" />
    <glyph glyph-name="dian" unicode="&#xe600;" 
d="M415 397h192v-192h-192v192z" />
    <glyph glyph-name="qq" unicode="&#xe606;" 
d="M139 233q-24 -59 -27.5 -108t15.5 -60q13 -7 32.5 7.5t38.5 45.5q16 -66 72 -116q-29 -11 -45.5 -28.5t-16.5 -37.5q0 -34 43.5 -57.5t105.5 -23.5q56 0 97.5 19.5t50.5 48.5h18q8 -29 50 -48.5t98 -19.5q62 0 105.5 23.5t43.5 57.5q0 20 -16.5 37.5t-45.5 28.5
q56 50 71 116q20 -31 39 -45.5t32 -7.5q19 11 16 60t-27 108q-19 46 -42 78t-43 40q1 7 1 12q0 35 -17 64v4q0 16 -7 30q-5 125 -77.5 207t-190 82t-189.5 -82t-77 -207q-7 -14 -7 -30v-4q-17 -29 -17 -64q0 -5 1 -12q-20 -8 -43.5 -40t-41.5 -78z" />
    <glyph glyph-name="weixin" unicode="&#xe66f;" 
d="M659 519q13 0 29 -2q-19 90 -104.5 149t-194.5 59q-123 0 -209.5 -73t-86.5 -178q0 -118 118 -200l-29 -89l103 51q75 -14 104 -14q13 0 28 1q-9 31 -9 62q0 97 73 165.5t178 68.5zM500 599q17 0 27 -10t10 -26.5t-10 -27t-27 -10.5t-30.5 10.5t-13.5 27t13.5 26.5
t30.5 10zM293 525q-18 0 -31.5 10.5t-13.5 27t13.5 26.5t31.5 10q17 0 27 -10t10 -26.5t-10 -27t-27 -10.5zM930 288q0 88 -75.5 151.5t-176.5 63.5q-105 0 -178.5 -63t-73.5 -152t73.5 -151.5t178.5 -62.5q30 0 89 14l81 -44l-22 74q104 78 104 170zM596 325q-11 0 -20 9.5
t-9 20.5t9 20.5t20 9.5q17 0 27 -9t10 -21t-10 -21t-27 -9zM759 325q-11 0 -20 9.5t-9 20.5t9 20.5t20 9.5q16 0 26.5 -9t10.5 -21t-10.5 -21t-26.5 -9z" />
    <glyph glyph-name="xihebiaozhunyuanjian439" unicode="&#xe601;" horiz-adv-x="1025" 
d="M669 465v4v3v4v4v3l-1 4v7v6v19h3l3 -1h3l2 -1h3l3 -1l3 -1l3 -1h3l3 -1l3 -1l1 -1l1 -1h2l1 -1l2 -1h1l1 -1h1l2 -1l1 -1l1 -1h2v-1l2 -1l1 -1l1 -1l2 -1l1 -2h1l1 -1l1 -2l1 -1h1l1 -1v-1l1 -2l1 -1l1 -1v-1l1 -1v-1l1 -2v-2v0l1 -2v-2l1 -1v-1v-2v-3l13 -2l11 -1
l10 -1l8 -1h9l9 -1l22 -2h36h5h9l5 -1h9l11 -1h11l11 1l8 1h4h4h4l4 1h3h4h4l5 1h10h12l-1 9l-1 9l-1 8l-1 3v4l-1 3v3l-1 3v4l-1 3l-1 2l-1 3v3l-1 3l-1 3v2l-1 4l-1 2l-1 3l-1 3l-1 3l-1 3l-2 3l-1 4l-2 3l-1 4l-2 3l-3 9l-3 3l-3 3l-3 3l-3 3l-2 3l-3 3l-3 2l-2 3l-3 2
l-2 2l-2 2l-3 2l-2 1l-5 4l-2 1l-3 2l-2 1l-3 1l-2 2l-2 1l-6 2l-2 1l-3 1l-3 1l-3 1l-3 1l-3 1l-4 1l-7 3l-8 2l-7 2l-8 2l-7 2l-6 1l-6 2l-5 1l-6 2l-6 1l-6 1l-5 1l-6 2l-7 1l-6 1l-7 1l-8 2l-12 2l-10 1l-11 2l-10 1l-22 3l-10 1l-11 1l-11 1l-11 1l-11 1l-11 1l-11 1
l-10 1h-12l-11 1l-11 1h-11h-11l-11 1h-11h-55h-6h-5l-5 -1h-6h-5h-6h-5l-5 -1h-6l-5 -1h-5h-6l-5 -1h-5l-15 -2l-5 -1h-7h-5l-6 -1l-5 -1l-18 -1l-5 -1h-5l-6 -1l-5 -1l-5 -1h-6l-10 -2l-20 -3l-10 -1l-9 -2l-19 -3l-18 -3l-5 -1l-5 -1l-5 -1l-5 -1l-5 -1l-5 -1l-5 -2
l-5 -1l-5 -1l-5 -2h-2l-3 -1l-2 -1h-3l-2 -1l-2 -1l-3 -1l-2 -1l-3 -1l-2 -1h-2l-2 -1l-3 -1l-2 -1l-2 -2l-2 -1l-3 -1l-4 -2l-2 -1l-3 -2l-2 -1l-2 -1l-2 -2l-2 -1l-2 -2l-2 -1l-3 -2l-1 -1l-2 -2l-3 -2l-2 -1l-2 -2l-2 -2l-2 -2l-1 -1l-2 -2l-3 -2l-1 -3l-2 -2l-2 -2
l-2 -2l-2 -2l-1 -2l-4 -9l-2 -3l-2 -4l-1 -3l-2 -3l-1 -3l-2 -3l-1 -3l-1 -3l-1 -3l-1 -3l-1 -3l-1 -3l-1 -3l-1 -3v-3v-2l-1 -3l-1 -3v-3v-3l-1 -3l-1 -3v-3v-3v-6l-1 -7l-1 -7l-1 -8h16h5h5l4 -1h5h4l5 -1h4h5l4 -1l8 -1h7h5h5h4h5l11 1l11 1h6h6h5h22h3h2h5l5 1h6l5 1
l10 1l10 1l11 1h5l5 1l6 1h5l5 1h6v2v1v2l1 2v1v1l1 2v1l1 2v1l1 1l1 1v2v1l1 1l1 1v1l1 1l1 1l1 2h1v1l1 1l1 1l1 1l1 1l1 1l1 1h1l1 1l1 1l1 1h1l1 1h2l1 1l1 1h2l1 1h1l1 1h2l2 1l3 1l3 1l3 1l3 1h3l3 1h3l3 1h3l3 1v-54l-64 -74l-94 -241v-8v-8l1 -13v-6v-5l1 -5v-3v-3
v-2v-2l1 -2v-2v-3l1 -2v-2l1 -2v-3l1 -2v-3l1 -2v-2l1 -3l1 -3l1 -3l8 -4h5h1h3h2l3 -1h2h1l2 -1h551l6 1h4h3l3 1h2h6h4l2 3l1 2l1 3l1 2l1 3l1 2v2l1 3l1 2l1 2v3l1 2v2v3l1 2v3v2l1 3v2v3v6l1 6l1 8v7l1 8v4v5l-94 241l-65 74v0zM512 167q-48 0 -81.5 34t-33.5 81.5
t33.5 81.5t81.5 34t81.5 -34t33.5 -81.5t-33.5 -81.5t-81.5 -34zM633 519l-3 -6l-3 -6l-3 -7l-2 -3l-1 -3l-1 -4l-1 -3l-2 -3l-1 -3l-1 -3l-1 -3l-7 1h-7l-7 1h-6l-7 1h-6h-7l-6 1h-7h-6h-7h-12l-7 1h-25l-6 -1h-13h-6h-6h-7l-6 -1h-6h-7l-6 -1h-6l-7 -1h-6l-6 -1l-4 7l-2 3
l-1 3l-2 4l-2 2l-2 4l-1 3l-1 3l-3 6l-1 3l-2 3l-1 3l-1 3l-1 3l4 1l4 1l4 1l4 1l4 1l4 1l4 1l4 1h4l4 1l4 1h4l4 1h4l4 1l4 1h4l3 1l4 1h4h4l4 1h4h4l4 1h4h3h4h4h28h3h4h4h4l4 -1h4h4l8 -1h3l4 -1l4 -1h4l4 -1l4 -1h4l3 -1h4l4 -1l4 -1l4 -1l4 -1l4 -1l4 -1l4 -1l4 -1
l4 -1l4 -1zM963 437h-10h-8h-4h-7l-4 -1h-3h-4h-4l-4 -1h-4l-4 -1h-6h-5h-9l-5 1h-4h-9h-8l-4 1h-10h-6h-13h-7l-6 1h-6h-5l-10 1l-4 1h-4l-4 1h-5l-8 2l-10 1l-11 1l1 -4l1 -4l1 -4l1 -4l1 -4l1 -1l1 -2v-1l1 -2v-1l1 -2v-1l1 -1v-1l1 -2l1 -1v-1l1 -1l1 -1v-1l1 -1l1 -1
v-1l1 -1l1 -1h1l1 -1v-1h1l1 -1l1 -1l1 -1v0l2 -1h1l1 -1h1l1 -1h1l1 -1h1l1 -1h1l3 -1l3 -1l3 -1h3l3 -1l3 -1l4 -1h3l7 -1h7l6 -1l6 -1h6h4h6h5l5 -1h5h6h38l4 1h4h4l4 1l3 1h4l3 1h1l2 1h1l2 1h1h2l1 1h1l1 1h2l1 1v0l2 1h1l1 1l1 1h1l1 1l1 1l1 1v0l1 1l1 1l1 1l1 1v1
l1 1v1l1 1l1 1l1 2v1v1l1 2l1 1v2v1l1 1l1 2v1v2l1 2v2l1 1v4l1 4l1 5h-6zM206 382l6 1l5 1h3l3 1l2 1h3l3 1l3 1h2l2 1h1l1 1h1l2 1h1l1 1l1 1h1l2 1l2 1l1 1l1 1l1 1h1l2 1l1 1l1 1l1 1l1 1l1 1v1l1 2l1 1l1 1l1 1l1 2l1 1l1 1v2l1 1l1 2l1 2v1l1 2v2l1 2v2l1 2l1 2v2v8
h-2h-3l-5 -1h-5l-5 -1l-5 -1h-5l-10 -2l-4 -1h-5l-4 -1h-5h-2h-3l-2 -1h-2h-2h-10h-3h-9l-3 1l-3 -1h-15h-6h-5l-6 -1h-5h-10l-4 -1h-7h-4h-1l-2 1h-1h-2l-2 1h-2h-4l-3 1h-4h-4h-5l-4 1h-33l-1 -2v-11l1 -2v-1v-2v-2l1 -1v-1v-1l1 -2v-1l1 -1v-2l1 -1v-1l1 -1l1 -2v-1l1 -1
l1 -1l1 -1l1 -1v-1h1l1 -2h1l1 -1l1 -1l1 -1h1l1 -1l1 -1l2 -1l1 -1h1l1 -1h1l2 -1h1l1 -1h2l1 -1l3 -1h1h2l1 -1h1h2h1l2 -1h3h1h7l7 -1h7h7h7h7h37h6h6h5h6z" />
    <glyph glyph-name="houdongfangiconfont03" unicode="&#xe634;" 
d="M996 -48q28 -28 28 -68t-28 -68t-68 -28t-68 28v0l-281 281q-91 -53 -195 -53q-159 0 -271.5 112.5t-112.5 271.5t112.5 271.5t271.5 112.5t271.5 -112.5t112.5 -271.5q0 -104 -53 -195l281 -281v0zM384 716q-119 0 -203.5 -84.5t-84.5 -203.5t84.5 -203.5t203.5 -84.5
t203.5 84.5t84.5 203.5t-84.5 203.5t-203.5 84.5z" />
    <glyph glyph-name="phone-line" unicode="&#xe6ed;" 
d="M811 250q6 -4 11 -8q22 -19 32 -30v0v0v0v0q2 -2 3.5 -4t2.5 -3t1 -2l2 -2l4 -7v-1q12 -23 -3 -55q-13 -29 -44 -57q-62 -58 -119 -58q-8 0 -16 1q-57 7 -153 60q-102 57 -179 130t-137 170q-56 91 -64 146q-5 35 17 74q19 34 53 63q1 1 4 3q33 27 58 36q13 6 25 6t23 -5
v0q4 -1 10 -5q27 -13 54 -49q18 -24 31 -46q16 -28 27 -52v-1l2 -6q11 -27 -10 -48q-1 0 -2 -1v0l-1 -1l-1 -1q0 -1 -2 -2q-3 -2 -4 -3v0q-9 -6 -15 -9l-10 -6v0q-8 -5 -25 -12q-14 -6 -24 -10q-8 -4 -11 -15.5t0 -15.5q24 -53 95 -120q49 -46 121 -87q6 -4 13 -4
q19 0 30 20q4 7 11 22q6 11 9 16v0q7 13 13 22q4 6 6 8q9 13 24 18q7 2 17 2q12 0 21 -4l15 -8v0l4 -2q4 -2 8 -5q12 -7 25 -16q3 -2 5 -4zM672 280q-4 -6 -15 -25l-7 -14q-8 -15 -12 -24q-9 -14 -24.5 -24.5t-33.5 -10.5q-15 0 -29 8q-75 42 -127 91q-75 72 -101 130
q-8 17 -2 37q6 25 28 35q10 5 25 12q14 5 21 9q5 3 10.5 6t12.5 8l1 1q3 2 3.5 3t1.5 1v0q6 6 3 14v1l-2 5q-11 23 -25 48q-12 20 -29 43q-22 29 -42 40h-1q-6 3 -9 4q-5 2 -10 2q-6 0 -13 -3h-1q-20 -8 -49 -31q-2 -2 -4 -3q-30 -25 -46 -54.5t-13 -53.5q7 -49 60 -134
q58 -94 132 -164t172 -125q91 -50 142 -57q6 -1 12 -1q44 0 98 50q26 24 37 47q9 20 3 29l-3 4v0l-1 1q-2 2 -5 7q-9 9 -29 25q-30 26 -56 43q-20 13 -33 21l-15 8q-3 1 -7 1t-7 -1q-6 -2 -8 -6z" />
    <glyph glyph-name="cha" unicode="&#xe607;" 
d="M793 513l-56 56l-225 -225l-225 225l-56 -56l225 -225l-225 -225l56 -56l225 225l225 -225l56 56l-225 225z" />
    <glyph glyph-name="kefulianxi" unicode="&#xe605;" 
d="M879 399q-22 8 -47 10v51q0 129 -91.5 220.5t-220.5 91.5t-221 -91.5t-92 -220.5v-51q-26 -2 -47 -10q-58 -21 -93.5 -71t-35.5 -111t35.5 -111t93.5 -70q32 -12 64 -12h59q7 0 12.5 5t5.5 12v352q0 7 -5.5 12.5t-12.5 5.5h-40v49q0 115 81 196t195.5 81t196 -81
t81.5 -196v-49h-41q-7 0 -12.5 -5.5t-5.5 -12.5v-352q0 -7 5.5 -12t12.5 -5h41v-50v0q0 -17 -12 -29t-29 -12v0h-105q-5 23 -19 36q-22 23 -53.5 23t-54 -22.5t-22.5 -54.5q0 -7 5 -12t12 -5h118h119v0q32 0 54 22t22 54v0v51q25 3 47 10q58 21 93.5 71t35.5 111
t-35.5 111.5t-93.5 70.5v0z" />
    <glyph glyph-name="xinlang" unicode="&#xe644;" 
d="M654 719q-19 -9 -23 -26.5t10 -32.5q7 -7 17.5 -9t39.5 -2q77 0 117 -46q25 -28 31 -47t6 -71q0 -46 2 -55.5t12 -15.5q25 -14 41 3t22 63q7 60 -24.5 122t-85.5 94q-35 21 -86 27.5t-79 -4.5v0v0v0zM385 617q-91 -33 -185 -133q-113 -120 -106 -226t132 -167
q129 -64 282.5 -45.5t248.5 109.5q47 44 60.5 93t-9 89t-75.5 59q-15 5 -20 9t-3 9q17 41 8 68q-13 39 -57.5 48t-113.5 -15l-37 -12l3 36q6 62 -31 80q-16 9 -43.5 8t-53.5 -10v0v0v0zM537 404q61 -16 96.5 -51t35.5 -79q0 -49 -41 -90.5t-112 -64.5q-38 -13 -97 -15t-93 8
q-66 18 -101.5 53t-35.5 81q0 50 48 94q22 22 43 34t54 23q104 35 203 7v0v0zM364 351q-85 -39 -85 -114q0 -66 63 -99q26 -14 65 -13t67 16q36 19 57.5 51t21.5 66q0 28 -21.5 57t-50.5 41q-23 9 -57.5 8t-59.5 -13v0v0v0zM404 248q7 -6 7 -21q0 -21 -25.5 -33t-39.5 1
q-8 8 -6.5 24t11 25t27.5 10.5t26 -6.5v0v0zM664 606q-19 -19 -9 -37t40 -18q26 0 38 -14t12 -43q0 -19 2.5 -26.5t9.5 -12.5q23 -15 38.5 0t15.5 51q0 45 -29 75.5t-75 33.5q-20 2 -28 0.5t-15 -9.5v0v0v0zM664 606z" />
    <glyph glyph-name="mima" unicode="&#xe680;" 
d="M721 490v57q-1 86 -63.5 147t-149.5 61t-149 -61t-63 -148v-56q-40 -4 -67.5 -33.5t-27.5 -69.5v-271q0 -42 30.5 -72.5t72.5 -30.5h412q43 0 73 30.5t30 72.5v271q0 41 -28.5 71t-69.5 32v0zM332 546q0 69 52.5 120t122.5 51t123.5 -51t54.5 -119v-56h-353v55zM787 116
q0 -25 -22.5 -47t-48.5 -22h-412q-25 0 -47.5 22t-22.5 47v271q0 26 19 49t43 23h412q26 0 52.5 -23.5t26.5 -48.5v-271v0zM787 116zM508 385q-35 0 -60 -24.5t-25 -59.5q0 -42 34 -67v-86q0 -8 6 -14t15 -6h61q9 0 15 6t6 14v86q34 25 34 67q0 35 -25 59.5t-61 24.5v0z
M540 257q-13 -7 -13 -21v-79h-35v79q0 14 -13 21q-23 13 -23 46q0 22 15.5 37t37.5 15t37.5 -15t15.5 -37q0 -33 -22 -46v0z" />
    <glyph glyph-name="ananzuiconv265-copy" unicode="&#xe604;" 
d="M888 156l-378 376l-376 -373q-11 -12 -28 -12t-29 12t-12 28.5t12 28.5l395 392q11 12 27 12q26 13 47 -8l401 -398q12 -12 12 -29t-12 -29t-29 -12t-30 12z" />
    <glyph glyph-name="dizhi" unicode="&#xe617;" 
d="M512 759q-109 0 -185.5 -77t-76.5 -185q0 -56 27 -126.5t65.5 -131.5t77 -114.5t65.5 -84.5l27 -31q11 12 28.5 32.5t63 81.5t80 117.5t62.5 128.5t28 128q0 108 -76.5 185t-185.5 77zM512 403q-39 0 -66.5 27.5t-27.5 66t27.5 66t66.5 27.5t66.5 -27.5t27.5 -66
t-27.5 -66t-66.5 -27.5z" />
    <glyph glyph-name="caidan" unicode="&#xe68b;" 
d="M63 768h896v-127h-896v127zM63 449h896v-128h-896v128zM63 130h896v-128h-896v128z" />
    <glyph glyph-name="youjiantou" unicode="&#xe625;" 
d="M780 425l-453 454q-17 17 -41.5 17t-41.5 -17t-17 -41.5t17 -41.5l412 -412l-412 -412q-17 -17 -17 -41.5t17 -41.5t41.5 -17t41.5 17l453 454q17 17 17 41t-17 41z" />
    <glyph glyph-name="search" unicode="&#xe6e7;" 
d="M924 52l-164 164q72 100 72 222q0 105 -51.5 193.5t-140 139.5t-192.5 51t-192.5 -51t-140 -139.5t-51.5 -193t51.5 -193t140 -140t192.5 -51.5q122 0 222 71l164 -164q9 -9 25 -10.5t26 8.5l45 45q9 10 6.5 24t-12.5 24zM128 438.5q0 86.5 43 160.5t116.5 116.5
t160.5 42.5t160.5 -42.5t116.5 -116.5t43 -160.5t-43 -160.5t-116.5 -117t-160.5 -43t-160.5 43t-116.5 117t-43 160.5z" />
    <glyph glyph-name="youku1193430easyiconnet" unicode="&#xe6c9;" 
d="M86 679q-17 -6 -18 -21q-1 -9 4 -19.5t34 -60.5q36 -62 36 -63t-14 -32t-15 -38q-7 -25 19 -33q17 -5 28 11q3 5 51 111t50 112q2 8 0 16q-3 11 -16 15q-25 10 -36 -14q-5 -11 -21 -47q-17 -38 -17.5 -38t-26.5 44q-25 44 -31 50q-12 13 -27 7v0zM327 678q-35 -8 -57 -39
q-20 -30 -17 -68.5t28 -63.5t65 -25q41 1 66 27q19 20 24 51q4 26 -2 47q-7 26 -24 44t-41 25q-21 6 -42 2zM360 630q19 -9 26 -35q6 -23 -5 -44q-10 -20 -28 -24.5t-33 9.5q-17 15 -17.5 41.5t15.5 42.5q19 21 42 10zM458 672q-9 -3 -12 -14q-2 -6 -2 -61.5t2 -63.5
q2 -9 5 -15q7 -15 22 -24q36 -22 86 -9q38 10 48 46q3 8 3 65.5t-2 62.5q-5 9 -15 12q-19 6 -27 -10q-4 -7 -5 -63v-54l-3 -5q-5 -11 -16 -17q-6 -3 -15 -3t-16 3q-10 5 -16 17l-2 5l-1 55v55l-3 6q-6 12 -20 12q-8 1 -11 0v0zM805 671q-8 -3 -12 -12l-2 -5v-57q0 -58 2 -66
q14 -49 80 -49q31 -1 51 10q5 3 13 10q12 12 17 31q3 8 3 64v56l-3 5q-5 13 -18 14q-12 2 -20 -6q-5 -6 -6 -13.5t-2 -53.5v-55l-3 -5q-5 -12 -17 -17q-5 -3 -14.5 -3t-15.5 3q-11 5 -16 16l-2 5l-1 55q0 44 -1 52t-5 14q-6 9 -18 9q-7 -1 -10 -2v0zM634 670q-8 -3 -12 -10
q-2 -5 -3 -42q-1 -35 -1 -78l1 -41l3 -6q3 -6 8 -8.5t15 -2.5t14 2q8 4 9.5 11.5t1.5 34.5q0 29 0.5 29t38 -35t42.5 -37q11 -6 23 -2q15 6 14 24q-1 10 -5.5 16t-27.5 27q-27 25 -27 26t18 17q31 30 34 37q3 6 4 11q2 18 -15 26q-6 3 -12 2.5t-10.5 -2.5t-40.5 -39l-36 -36
v27q0 27 -1 33q-2 10 -11 15q-12 6 -24 1v0zM265 363q-22 -68 -64 -127q-8 -12 -6 -13t14 -12q11 -11 13 -9q4 6 9 14l9 11v-69v-70h36v10l1 10l13 -11l14 -10l6 7q49 54 66 110q6 23 9 47q2 13 2.5 15t3.5 2h3v-72q0 -71 1 -77q4 -21 21 -27q7 -2 32 -2t31 2q19 7 24 29
q2 6 4.5 26t1.5 21q0 1 -17 5.5t-17.5 3t-1.5 -10.5q-3 -33 -6 -39q-3 -7 -17 -8t-18 7q-2 3 -2 72v70h70v31h-112v77l-18 -1h-18l-1 -38v-38l-31 -1h-30l-1 -15v-15h61v-4q0 -24 -10 -56q-15 -47 -56 -87l-8 -8v175l6 12q7 17 14.5 39t6.5 24q-1 0 -17 6.5t-17 6.5z
M752 353v-21h-11q-12 0 -12 1q0 2 1.5 12t1.5 13v3l-9 1q-2 0 -8 0.5t-8 0.5l-6 1l-1 -9q-2 -23 -10 -60q-4 -16 -4 -17.5t14.5 -4l14.5 -2.5q0 1 4 16l4 16l14 -1h15v-20v-20h-61v-15l1 -15h74h74v30h-54v41h45v14v14h-22l-23 1v43h-34v-22v0zM426 362q-10 -12 -9 -13
q4 -3 10 -8q5 -4 26 -22l18 -15l7 9q16 16 15 17q-1 2 -28 22.5t-29 20.5q-1 0 -10 -11v0zM530 353v-15h46v-32h-46v-100q1 -81 1.5 -92.5t5.5 -16.5q5 -6 18 -7.5t57 -0.5q39 0 47.5 1.5t14 7t6.5 17t1 92.5v99h-21h-22l-1 16v16h44v31h-151v-16zM611 322v-16h-9v32h9v-16z
M576 269q0 -16 -4 -33.5t-9 -24.5l-2 15v16v34h15v-7v0zM611 249l1 -27l3 -7q7 -14 26 -17l8 -1v-17h-88v25l11 -7q9 -5 11 -4.5t5 7.5q14 28 14 67v8h9v-27zM649 248v-28l-3 1q-6 1 -7.5 7.5t-1.5 27.5v20h12v-28zM649 139q0 -13 -1 -16q-2 -4 -8 -4.5t-35 -0.5
q-35 0 -38 2q-6 3 -6 20v12h88v-13zM701 162q0 -53 1 -57q4 -10 17 -14q7 -2 48 -2t48 2t11 6q5 5 6 13t1 52v53h-133l1 -53v0zM798 156q0 -24 -1 -29.5t-6 -7.5q-3 -1 -24 -1t-25 1q-5 2 -6 7.5t-1 29.5v30h63v-30v0z" />
    <glyph glyph-name="shuangjiantou-copy" unicode="&#xe696;" 
d="M544 664l-33 -34l230 -230l-230 -230l33 -33l264 263zM280 664l-34 -34l230 -230l-230 -230l34 -33l263 263z" />
    <glyph glyph-name="gouxuanzhong" unicode="&#xe693;" 
d="M689 474l-213 -231q-3 -5 -9 -5t-9 5l-29 29l-94 101q-5 11 0 22l29 29q3 5 9 5t9 -5l83 -90l177 191q3 5 9 5t9 -5l29 -29q5 -11 0 -22v0z" />
    <glyph glyph-name="shuxian" unicode="&#xe603;" 
d="M495 735h35v-702h-35v702z" />
    <glyph glyph-name="youxiang" unicode="&#xe681;" 
d="M864 690h-703q-27 0 -45.5 -18.5t-18.5 -44.5v-441q0 -26 18.5 -44.5t45.5 -18.5h703q26 0 45 18.5t19 44.5v441q0 26 -19 44.5t-45 18.5zM642 400q100 93 256 239q2 -6 2 -12v-441v-7zM864 663q9 0 17 -4q-228 -212 -299 -277q-35 -32 -71 -31q-33 2 -61 30h-1l-307 277
q9 5 18 5h704zM125 176q-1 5 -1 10v441q0 5 1 10l263 -236zM161 150q-10 0 -19 5l266 227l22 -20q33 -35 79 -38h6q44 0 86 38q13 12 21 20l263 -226q-10 -6 -21 -6h-703v0z" />
    <glyph glyph-name="youxiang1" unicode="&#xe691;" 
d="M550 263l-27 -27l-26 27l-88 88l-254 -255h737l-254 255zM123 637v-498l249 249zM924 139v498l-249 -249zM523 311l401 401h-800z" />
    <glyph glyph-name="chuanzhen" unicode="&#xe602;" 
d="M338 436h302q13 0 23 9.5t10 23.5v200q0 13 -9.5 23t-23.5 10h-289q-18 0 -30.5 -12.5t-12.5 -30.5v-193q0 -13 8.5 -21.5t21.5 -8.5zM783 569h-26q-17 0 -28 -10.5t-11 -32.5v-79q0 -18 -12.5 -30t-30.5 -12h-361q-18 0 -30 12t-12 30v79q0 43 -40 43h-27
q-24 0 -40.5 -16.5t-16.5 -40.5v-353q0 -23 16.5 -40t40.5 -17h41q26 0 26 29v28q0 18 12 30.5t30 12.5h359q18 0 30.5 -12.5t12.5 -30.5v-33q0 -24 22 -24h43q24 0 40.5 17t16.5 40v353q1 24 -15.5 40.5t-39.5 16.5zM338 436h302q13 0 23 9.5t10 23.5v200q0 13 -9.5 23
t-23.5 10h-289q-18 0 -30.5 -12.5t-12.5 -30.5v-193q0 -13 8.5 -21.5t21.5 -8.5zM333 50h313q12 0 20.5 8.5t8.5 20.5v60q0 9 -7 16.5t-17 7.5h-316q-11 0 -19 -8t-8 -19v-60q0 -10 7.5 -18t17.5 -8z" />
    <glyph glyph-name="youjiantou-copy" unicode="&#xe78e;" 
d="M244 343l453 -454q17 -17 41.5 -17t41.5 17t17 41.5t-17 41.5l-412 412l412 412q17 17 17 41.5t-17 41.5t-41.5 17t-41.5 -17l-453 -454q-17 -17 -17 -41t17 -41z" />
    <glyph glyph-name="ananzuiconv265-copy-copy" unicode="&#xe78f;" 
d="M136 612l378 -376l376 373q11 12 28 12t29 -12t12 -28.5t-12 -28.5l-395 -392q-11 -12 -27 -12q-26 -13 -47 8l-401 398q-12 12 -12 29t12 29t29 12t30 -12z" />
  </font>
</defs>
</svg>
